<svg xmlns="http://www.w3.org/2000/svg" xmlns:xlink="http://www.w3.org/1999/xlink" version="1.1" x="0px" y="0px" viewBox="0 0 20 25" style="enable-background:new 0 0 20 20;" xml:space="preserve"><style type="text/css">
	.st0{fill:none;stroke:#000000;stroke-width:2;stroke-linecap:round;stroke-linejoin:round;stroke-miterlimit:10;}
</style><g><path d="M19.4,6.3C17.5,3.2,14.1,0,10,0S2.5,3.2,0.6,6.3C-1.2,9.2,1,13,4.5,13h1.2l-0.9,3.2C4.2,18.1,5.7,20,7.7,20h4.7   c2,0,3.4-1.9,2.9-3.8L14.3,13h1.2C19,13,21.2,9.2,19.4,6.3z M13.3,16.7c0.2,0.6-0.3,1.3-1,1.3H7.7c-0.7,0-1.1-0.6-1-1.3L7.8,13h4.5   L13.3,16.7z M15.5,11c-4.6,0-5.8,0-11,0c-1.9,0-3.2-2.1-2.2-3.7C3.8,4.9,6.7,2,10,2s6.2,2.9,7.7,5.3C18.7,8.9,17.4,11,15.5,11z"/><path d="M10,4C7.4,4,5.3,6.6,4.7,7.4C4.3,7.8,4.4,8.5,4.9,8.8C5.3,9.1,5.9,9,6.3,8.6C7.5,7,8.9,6,10,6c0.6,0,1-0.4,1-1S10.6,4,10,4   z"/></g><text x="0" y="35" fill="#000000" font-size="5px" font-weight="bold" font-family="'Helvetica Neue', Helvetica, Arial-Unicode, Arial, Sans-serif">Created by ProSymbols</text><text x="0" y="40" fill="#000000" font-size="5px" font-weight="bold" font-family="'Helvetica Neue', Helvetica, Arial-Unicode, Arial, Sans-serif">from the Noun Project</text></svg>